<?xml version="1.0" encoding="UTF-8" standalone="no"?>
<!DOCTYPE svg PUBLIC "-//W3C//DTD SVG 1.1//EN" "http://www.w3.org/Graphics/SVG/1.1/DTD/svg11.dtd">
<svg version="1.1" xmlns="http://www.w3.org/2000/svg" xmlns:xlink="http://www.w3.org/1999/xlink" preserveAspectRatio="xMidYMid meet" viewBox="0 0 50 50" width="50" height="50"><defs><path d="" id="a2E0LtZLAv"></path><path d="" id="a11GpjxJwX"></path><path d="M32.09 0L32.12 0.01L32.16 0.01L32.19 0.02L32.22 0.02L32.25 0.03L32.28 0.04L32.32 0.05L32.35 0.07L32.38 0.08L32.4 0.09L32.43 0.11L32.46 0.12L32.49 0.14L32.51 0.16L32.54 0.18L32.56 0.2L32.59 0.22L32.61 0.24L32.63 0.27L32.65 0.29L32.67 0.32L32.69 0.34L32.71 0.37L32.73 0.39L32.75 0.42L32.76 0.45L32.78 0.48L32.79 0.51L32.8 0.54L32.81 0.57L32.82 0.6L32.83 0.63L32.84 0.67L32.84 0.7L32.85 0.73L32.85 0.77L32.85 0.8L32.85 0.83L32.85 17.5L49.52 17.5L49.56 17.5L49.59 17.5L49.62 17.51L49.66 17.51L49.69 17.52L49.72 17.52L49.75 17.53L49.78 17.54L49.82 17.55L49.85 17.57L49.88 17.58L49.9 17.59L49.93 17.61L49.96 17.62L49.99 17.64L50.01 17.66L50.04 17.68L50.06 17.7L50.09 17.72L50.11 17.74L50.13 17.77L50.15 17.79L50.17 17.82L50.19 17.84L50.21 17.87L50.23 17.89L50.25 17.92L50.26 17.95L50.28 17.98L50.29 18.01L50.3 18.04L50.31 18.07L50.32 18.1L50.33 18.13L50.34 18.17L50.34 18.2L50.35 18.23L50.35 18.27L50.35 18.3L50.35 18.33L50.35 31.67L50.35 31.7L50.35 31.73L50.35 31.77L50.34 31.8L50.34 31.83L50.33 31.87L50.32 31.9L50.31 31.93L50.3 31.96L50.29 31.99L50.28 32.02L50.26 32.05L50.25 32.08L50.23 32.11L50.21 32.13L50.19 32.16L50.17 32.18L50.15 32.21L50.13 32.23L50.11 32.26L50.09 32.28L50.06 32.3L50.04 32.32L50.01 32.34L49.99 32.36L49.96 32.38L49.93 32.39L49.9 32.41L49.88 32.42L49.85 32.43L49.82 32.45L49.78 32.46L49.75 32.47L49.72 32.48L49.69 32.48L49.66 32.49L49.62 32.49L49.59 32.5L49.56 32.5L49.52 32.5L32.85 32.5L32.85 49.17L32.85 49.2L32.85 49.23L32.85 49.27L32.84 49.3L32.84 49.33L32.83 49.37L32.82 49.4L32.81 49.43L32.8 49.46L32.79 49.49L32.78 49.52L32.76 49.55L32.75 49.58L32.73 49.61L32.71 49.63L32.69 49.66L32.67 49.68L32.65 49.71L32.63 49.73L32.61 49.76L32.59 49.78L32.56 49.8L32.54 49.82L32.51 49.84L32.49 49.86L32.46 49.88L32.43 49.89L32.4 49.91L32.38 49.92L32.35 49.93L32.32 49.95L32.28 49.96L32.25 49.97L32.22 49.98L32.19 49.98L32.16 49.99L32.12 49.99L32.09 50L32.06 50L32.02 50L18.69 50L18.65 50L18.62 50L18.59 49.99L18.55 49.99L18.52 49.98L18.49 49.98L18.46 49.97L18.42 49.96L18.39 49.95L18.36 49.93L18.33 49.92L18.31 49.91L18.28 49.89L18.25 49.88L18.22 49.86L18.2 49.84L18.17 49.82L18.15 49.8L18.12 49.78L18.1 49.76L18.08 49.73L18.06 49.71L18.04 49.68L18.02 49.66L18 49.63L17.98 49.61L17.96 49.58L17.95 49.55L17.93 49.52L17.92 49.49L17.91 49.46L17.9 49.43L17.89 49.4L17.88 49.37L17.87 49.33L17.87 49.3L17.86 49.27L17.86 49.23L17.86 49.2L17.85 49.17L17.85 32.5L1.19 32.5L1.15 32.5L1.12 32.5L1.09 32.49L1.05 32.49L1.02 32.48L0.99 32.48L0.96 32.47L0.92 32.46L0.89 32.45L0.86 32.43L0.83 32.42L0.81 32.41L0.78 32.39L0.75 32.38L0.72 32.36L0.7 32.34L0.67 32.32L0.65 32.3L0.62 32.28L0.6 32.26L0.58 32.23L0.56 32.21L0.54 32.18L0.52 32.16L0.5 32.13L0.48 32.11L0.46 32.08L0.45 32.05L0.43 32.02L0.42 31.99L0.41 31.96L0.4 31.93L0.39 31.9L0.38 31.87L0.37 31.83L0.37 31.8L0.36 31.77L0.36 31.73L0.36 31.7L0.35 31.67L0.35 18.33L0.36 18.3L0.36 18.27L0.36 18.23L0.37 18.2L0.37 18.17L0.38 18.13L0.39 18.1L0.4 18.07L0.41 18.04L0.42 18.01L0.43 17.98L0.45 17.95L0.46 17.92L0.48 17.89L0.5 17.87L0.52 17.84L0.54 17.82L0.56 17.79L0.58 17.77L0.6 17.74L0.62 17.72L0.65 17.7L0.67 17.68L0.7 17.66L0.72 17.64L0.75 17.62L0.78 17.61L0.81 17.59L0.83 17.58L0.86 17.57L0.89 17.55L0.92 17.54L0.96 17.53L0.99 17.52L1.02 17.52L1.05 17.51L1.09 17.51L1.12 17.5L1.15 17.5L1.19 17.5L17.85 17.5L17.85 0.83L17.86 0.8L17.86 0.77L17.86 0.73L17.87 0.7L17.87 0.67L17.88 0.63L17.89 0.6L17.9 0.57L17.91 0.54L17.92 0.51L17.93 0.48L17.95 0.45L17.96 0.42L17.98 0.39L18 0.37L18.02 0.34L18.04 0.32L18.06 0.29L18.08 0.27L18.1 0.24L18.12 0.22L18.15 0.2L18.17 0.18L18.2 0.16L18.22 0.14L18.25 0.12L18.28 0.11L18.31 0.09L18.33 0.08L18.36 0.07L18.39 0.05L18.42 0.04L18.46 0.03L18.49 0.02L18.52 0.02L18.55 0.01L18.59 0.01L18.62 0L18.65 0L18.69 0L32.02 0L32.06 0L32.09 0Z" id="d43GZXyxw"></path></defs><g><g><g><g><use xlink:href="#a2E0LtZLAv" opacity="1" fill-opacity="0" stroke="#000000" stroke-width="1" stroke-opacity="1"></use></g></g><g><g><use xlink:href="#a11GpjxJwX" opacity="1" fill-opacity="0" stroke="#000000" stroke-width="1" stroke-opacity="1"></use></g></g><g><use xlink:href="#d43GZXyxw" opacity="1" fill="#fafafa" fill-opacity="1"></use></g></g></g></svg>